# AST/ASF file generated using VICON BodyLanguage
# -----------------------------------------------
:version 1.10
:name VICON
:units
  mass 1.0
  length 0.45
  angle deg
:documentation
   .ast/.asf automatically generated from VICON data using
   VICON BodyBuilder and BodyLanguage model FoxedUp or BRILLIANT.MOD
:root
   order TX TY TZ RX RY RZ
   axis XYZ
   position 0 0 0  
   orientation 0 0 0 
:bonedata
  begin
     id 1 
     name lhipjoint
     direction 0.653368 -0.678499 0.335782 
     length 2.51848 
     axis 0 0 0  XYZ
  end
  begin
     id 2 
     name lfemur
     direction 0.34202 -0.939693 0  
     length 6.57749  
     axis 0 0 20  XYZ
    dof rx ry rz
    limits (-160.0 20.0)
           (-70.0 70.0)
           (-60.0 70.0)
  end
  begin
     id 3 
     name ltibia
     direction 0.34202 -0.939693 0   
     length 7.94618   
     axis 0 0 20   XYZ
    dof rx
    limits (-10.0 170.0)
  end
  begin
     id 4 
     name lfoot
     direction 0.0811271 -0.222895 0.971461   
     length 2.31339   
     axis -90 7.62852e-016 20   XYZ
    dof rx rz
    limits (-45.0 90.0)
           (-70.0 20.0)
  end
  begin
     id 5 
     name ltoes
     direction 1.53568e-011 -4.21885e-011 1   
     length 1.15935   
     axis -90 7.62852e-016 20   XYZ
    dof rx
    limits (-90.0 20.0)
  end
  begin
     id 6 
     name rhipjoint
     direction -0.640058 -0.688614 0.340788   
     length 2.48149  
     axis 0 0 0  XYZ 
  end
  begin
     id 7 
     name rfemur
     direction -0.34202 -0.939693 0   
     length 6.57875   
     axis 0 0 -20   XYZ
    dof rx ry rz
    limits (-160.0 20.0)
           (-70.0 70.0)
           (-70.0 60.0)
  end
  begin
     id 8 
     name rtibia
     direction -0.34202 -0.939693 0   
     length 7.977   
     axis 0 0 -20   XYZ
    dof rx
    limits (-10.0 170.0)
 end
 begin
     id 9 
     name rfoot
     direction -0.0979793 -0.269196 0.958089   
     length 2.19857  
     axis -90 -7.62852e-016 -20   XYZ
    dof rx rz
    limits (-45.0 90.0)
           (-20.0 70.0)
  end
  begin
     id 10 
     name rtoes
     direction -1.53556e-011 -4.21868e-011 1   
     length 1.09838   
     axis -90 -7.62852e-016 -20   XYZ
    dof rx
    limits (-90.0 20.0)
  end
  begin
     id 11 
     name lowerback
     direction 0.0149039 0.998517 -0.0523597   
     length 2.10809   
     axis 0 0 0   XYZ
    dof rx ry rz
    limits (-20.0 45.0)
           (-30.0 30.0)
           (-30.0 30.0)
  end
  begin
     id 12 
     name upperback
     direction -0.00882659 0.999418 -0.0329624   
     length 2.1102   
     axis 0 0 0   XYZ
    dof rx ry rz
    limits (-20.0 45.0)
           (-30.0 30.0)
           (-30.0 30.0)
  end
  begin
     id 13 
     name thorax
     direction -0.0165585 0.999826 -0.0085833   
     length 2.11039   
     axis 0 0 0   XYZ
    dof rx ry rz
    limits (-20.0 45.0)
           (-30.0 30.0)
           (-30.0 30.0)
  end
  begin
     id 14 
     name lowerneck
     direction -0.0130877 0.999911 0.00260353   
     length 1.73253   
     axis 0 0 0   XYZ
    dof rx ry rz
    limits (-20.0 45.0)
           (-30.0 30.0)
           (-30.0 30.0)
  end
  begin
     id 15 
     name upperneck
     direction -0.0348454 0.928205 -0.370435   
     length 1.66692   
     axis 0 0 0   XYZ
    dof rx ry rz
    limits (-20.0 45.0)
           (-30.0 30.0)
           (-30.0 30.0)
  end
  begin
     id 16
     name head
     direction -0.00807754 0.992494 -0.122026  
     length 1.72765  
     axis 0 0 0   XYZ
    dof rx ry rz
    limits (-20.0 45.0)
           (-30.0 30.0)
           (-30.0 30.0)
  end
  begin
     id 17 
     name lclavicle
     direction 0.987582 0.144023 0.0627671  
     length 3.49235  
     axis 0 0 0   XYZ
    dof ry rz
    limits (-20.0 10.0)
           (0.0 20.0)
  end
  begin
     id 18 
     name lhumerus
     direction 1 -4.48958e-011 -1.45183e-018   
     length 5.41917   
     axis 180 -30 -90   XYZ
    dof rx ry rz
    limits (-60.0 90.0)
           (-90.0 90.0)
           (-90.0 90.0)
  end
  begin
     id 19
     name lradius
     direction 1 -4.48999e-011 5.75106e-027   
     length 2.44373   
     axis 180 -30 -90   XYZ
    dof rx
    limits (-10.0 170.0)
  end
  begin
     id 20
     name lwrist
     direction 1 -4.48987e-011 1.53461e-026   
     length 1.22186   
     axis -1.09697e-014 90 90   XYZ
    dof ry
    limits (-180.0 0.0)
 end
  begin
     id 21 
     name lhand
     direction 1 -4.48881e-011 3.06923e-026   
     length 0.727502   
     axis -1.95843e-014 90 90   XYZ
    dof rx rz
    limits (-90.0 90.0)
           (-45.0 45.0)
  end
  begin
     id 22 
     name lfingers
     direction 1 -4.48907e-011 6.13845e-026   
     length 0.586531   
     axis -3.91686e-014 90 90   XYZ
    dof rx
    limits (0.0 90.0)
  end
  begin
     id 23
     name lthumb
     direction 0.707107 -6.3487e-011 0.707107   
     length 0.842145   
     axis -90 45 2.85299e-015   XYZ
    dof rx rz
    limits (-45.0 45.0)
           (-45.0 45.0)
  end
  begin
     id 24 
     name rclavicle
     direction -0.980998 0.169556 0.0943023   
     length 3.29272  
     axis 0 0 0   XYZ 
    dof ry rz
    limits (-10.0 20.0)
           (-20.0 0.0)
  end
  begin
     id 25 
     name rhumerus
     direction -1 -1.83355e-005 2.45537e-005  
     length 5.58976   
     axis 180 30 90   XYZ
    dof rx ry rz
    limits (-90.0 60.0)
           (-90.0 90.0)
           (-90.0 90.0)
  end
  begin
     id 26 
     name rradius
     direction -1 -4.48967e-011 5.97228e-027   
     length 2.4806   
     axis 180 30 90   XYZ
    dof rx
    limits (-10.0 170.0)
  end
  begin
     id 27 
     name rwrist
     direction -1 -4.48963e-011 1.53461e-026   
     length 1.2403   
     axis -1.09697e-014 -90 -90   XYZ
    dof ry
    limits (-180.0 0.0)
  end
  begin
     id 28
     name rhand
     direction -1 -4.48881e-011 3.06923e-026   
     length 0.816009   
     axis -1.95843e-014 -90 -90   XYZ
    dof rx rz
    limits (-90.0 90.0)
           (-45.0 45.0)
  end
  begin
     id 29
     name rfingers
     direction -1 -4.49018e-011 6.13845e-026   
     length 0.657887   
     axis -3.91686e-014 -90 -90   XYZ
    dof rx
    limits (0.0 90.0)
  end
  begin
     id 30
     name rthumb
     direction -0.707107 -6.34872e-011 0.707107   
     length 0.944599   
     axis -90 -45 -2.85299e-015   XYZ
    dof rx rz
    limits (-45.0 45.0)
           (-45.0 45.0)
  end
:hierarchy
  begin
    root lhipjoint rhipjoint lowerback
    lhipjoint lfemur
    lfemur ltibia
    ltibia lfoot
    lfoot ltoes
    rhipjoint rfemur
    rfemur rtibia
    rtibia rfoot
    rfoot rtoes
    lowerback upperback
    upperback thorax
    thorax lowerneck lclavicle rclavicle
    lowerneck upperneck
    upperneck head
    lclavicle lhumerus
    lhumerus lradius
    lradius lwrist
    lwrist lhand lthumb
    lhand lfingers
    rclavicle rhumerus
    rhumerus rradius
    rradius rwrist
    rwrist rhand rthumb
    rhand rfingers
  end

#!OML:ASF F:\VICON\USERDATA\INSTALL\rory3\rory3.ASF
:FULLY-SPECIFIED
:DEGREES
57
root 0.389496 16.3568 -27.5248 10.8668 1.12448 -5.37034
lowerback -6.17834 0.193616 4.9006
upperback -3.64357 -0.00294824 3.18978
thorax -0.299403 -0.0439055 0.537223
lowerneck -18.1372 -3.68446 -4.61636
upperneck 32.0978 -3.72222 -0.422878
head 14.0903 -2.2408 -0.0180087
rclavicle -1.54679e-015 -1.63003e-014
rhumerus -44.5566 -10.2008 -72.424
rradius 21.0826
rwrist -5.10533
rhand -2.30635 11.7965
rfingers 7.12502
rthumb 23.3795 -16.8035
lclavicle -1.54679e-015 -1.63003e-014
lhumerus -47.7268 23.9311 65.5207
lradius 40.7301
lwrist -5.51064
lhand -1.20996 17.3752
lfingers 7.12502
lthumb 24.4309 45.8374
rfemur -32.7464 10.1455 25.5611
rtibia 29.423
rfoot -17.8872 -16.2841
rtoes -7.22988
lfemur -3.50982 -4.65721 -18.1258
ltibia 41.3173
lfoot -14.1963 20.6502
ltoes 0.0577018
58
root 0.368912 16.3608 -27.3794 10.4084 1.04051 -5.58983
lowerback -5.77141 0.246304 5.12587
upperback -3.39334 0.072489 3.33455
thorax -0.265732 -0.00490322 0.564051
lowerneck -18.8811 -3.60071 -4.53149
upperneck 32.3314 -3.52201 -0.595041
head 14.3481 -2.16638 -0.0844012
rclavicle -1.4474e-014 -1.82882e-014
rhumerus -44.0351 -10.0088 -72.3549
rradius 21.0641
rwrist -5.35573
rhand -2.27449 11.6945
rfingers 7.12502
rthumb 23.4101 -16.9015
lclavicle -1.4474e-014 -1.82882e-014
lhumerus -47.9852 24.7146 65.3897
lradius 39.4892
lwrist -5.40035
lhand -0.93306 17.2084
lfingers 7.12502
lthumb 24.6964 45.6346
rfemur -31.7049 10.1815 26.0927
rtibia 29.5949
rfoot -18.7253 -16.1956
rtoes -7.72027
lfemur -4.36814 -4.13424 -17.7986
ltibia 43.8608
lfoot -13.6503 20.1269
ltoes 3.19154
59
root 0.36672 16.3629 -27.2437 10.4627 0.166805 -5.61436
lowerback -5.62627 0.628096 5.40076
upperback -3.27908 0.572054 3.22667
thorax -0.212069 0.24211 0.326308
lowerneck -19.8578 -3.4868 -4.34802
upperneck 32.8236 -3.33514 -0.668338
head 14.7785 -2.07268 -0.137228
rclavicle 1.30701e-014 -2.3059e-014
rhumerus -43.5254 -9.82338 -72.5994
rradius 21.1529
rwrist -5.6825
rhand -2.25611 11.2797
rfingers 7.12502
rthumb 23.4277 -17.3142
lclavicle 1.30701e-014 -2.3059e-014
lhumerus -48.0344 25.0587 65.4958
lradius 38.3783
lwrist -4.81747
lhand -1.3602 18.0288
lfingers 7.12502
lthumb 24.2869 46.5103
rfemur -31.2653 10.0976 26.3173
rtibia 29.6928
rfoot -18.9427 -15.4123
rtoes -9.21317
lfemur -5.81811 -2.80492 -17.8752
ltibia 46.4535
lfoot -12.8266 19.7336
ltoes 4.29192
60
root 0.338819 16.3775 -27.1484 11.0311 0.495614 -5.44585
lowerback -6.05623 0.77462 5.38812
upperback -3.70328 0.758793 3.0194
thorax -0.403257 0.325273 0.13325
lowerneck -18.4565 -3.52125 -4.23734
upperneck 32.5025 -3.53524 -0.574424
head 14.3213 -2.13296 -0.121663
rclavicle 7.4917e-015 -1.63003e-014
rhumerus -44.04 -9.76987 -72.7825
rradius 21.6219
rwrist -6.29462
rhand -2.36233 10.6164
rfingers 7.12502
rthumb 23.3258 -17.9904
lclavicle 7.4917e-015 -1.63003e-014
lhumerus -48.51 24.5113 65.457
lradius 37.4287
lwrist -4.26885
lhand -1.42854 19.2569
lfingers 7.12502
lthumb 24.2214 47.7472
rfemur -31.4585 9.96074 26.2133
rtibia 29.662
rfoot -19.6675 -15.5514
rtoes -9.23957
lfemur -8.25651 -2.33579 -17.662
ltibia 48.8762
lfoot -11.2453 19.1857
ltoes 4.54335
61
root 0.318341 16.3902 -27.0241 10.9324 0.668195 -5.41663
lowerback -5.85679 0.716994 5.29921
upperback -3.3123 0.679614 3.1724
thorax -0.114648 0.298532 0.335212
lowerneck -19.9619 -3.50168 -4.24293
upperneck 32.7962 -3.35814 -0.741236
head 14.7852 -2.07688 -0.190526
rclavicle -1.31074e-014 -2.34566e-014
rhumerus -42.8788 -9.23135 -73.0903
rradius 21.7003
rwrist -6.8788
rhand -2.56073 9.89037
rfingers 7.12502
rthumb 23.1355 -18.7405
lclavicle -1.31074e-014 -2.34566e-014
lhumerus -48.0594 25.487 65.824
lradius 36.5632
lwrist -4.12712
lhand -0.926206 20.8109
lfingers 7.12502
lthumb 24.7029 49.2361
rfemur -30.7212 10.0228 26.3485
rtibia 29.5283
rfoot -20.5599 -15.8479
rtoes -9.45665
lfemur -9.72318 -1.95384 -17.4585
ltibia 51.1867
lfoot -10.4239 18.4393
ltoes 6.22257
62
root 0.314782 16.3979 -26.8872 10.5825 -0.240397 -5.79527
lowerback -5.43022 1.04311 5.8034
upperback -3.0367 1.10709 3.25571
thorax -0.0474908 0.510919 0.160716
lowerneck -20.6749 -3.36328 -4.08119
upperneck 33.0275 -3.10252 -0.93061
head 15.0401 -1.97413 -0.265821
rclavicle -2.08724e-015 6.59965e-014
rhumerus -42.2827 -8.98906 -73.1179
rradius 21.6408
rwrist -6.92355
rhand -2.34215 11.1569
rfingers 7.12502
rthumb 23.3452 -17.4475
lclavicle -2.08724e-015 6.59965e-014
lhumerus -48.1173 25.8944 66.0014
lradius 35.8488
lwrist -3.8429
lhand -0.559823 22.3016
lfingers 7.12502
lthumb 25.0541 50.6783
rfemur -29.6236 10.146 26.9737
rtibia 29.2851
rfoot -20.4664 -15.2496
rtoes -11.203
lfemur -10.5361 -0.739208 -17.1633
ltibia 53.2342
lfoot -10.2782 17.6844
ltoes 8.22087
63
root 0.289426 16.4056 -26.8021 11.1561 0.235046 -6.10677
lowerback -5.54926 1.19839 6.35359
upperback -3.7066 1.32134 3.10418
thorax -0.654649 0.585982 -0.292543
lowerneck -18.9523 -3.37566 -3.82163
upperneck 32.6812 -3.33046 -0.865454
head 14.4898 -2.03115 -0.286085
rclavicle 1.65737e-014 -9.14409e-015
rhumerus -43.0955 -9.10659 -73.1396
rradius 21.8579
rwrist -7.26462
rhand -2.48375 10.629
rfingers 7.12502
rthumb 23.2093 -17.9925
lclavicle 1.65737e-014 -9.14409e-015
lhumerus -48.996 24.7141 65.9268
lradius 35.4081
lwrist -3.38026
lhand -0.128227 23.4908
lfingers 7.12502
lthumb 25.4675 51.8092
rfemur -29.6673 9.99993 27.4034
rtibia 28.9297
rfoot -20.554 -15.4414
rtoes -11.5132
lfemur -13.0681 -0.636267 -16.4899
ltibia 55.316
lfoot -9.5705 17.0099
ltoes 8.1941
